<svg width="17" height="13" viewBox="0 0 17 13" fill="none" xmlns="http://www.w3.org/2000/svg">
<path fill-rule="evenodd" clip-rule="evenodd" d="M11.1768 3.83333L10.9138 4.49715L9.74977 7.4355L9.17869 8.877L7.74336 12.5H9.51754L10.2451 10.5326H13.8317L14.572 12.5H16.41L12.9765 3.83333H11.2378H11.1768ZM11.0286 8.43479L10.7939 9.0632H11.5136H13.2956L12.0448 5.7136L11.0286 8.43479ZM9.93725 3.34224C9.96396 3.27481 9.99577 3.21045 10.0321 3.14954H6.82912V0.5H5.33603V3.14954H0.950836V4.49715H4.72469C3.76065 6.29015 2.16176 8.01463 0.410034 8.9283C0.739218 9.2138 1.22124 9.7391 1.45636 10.0931C2.96121 9.1795 4.31321 7.72912 5.33603 6.07316V11.1667H6.82912V6.01606C7.22954 6.65256 7.67751 7.26169 8.16213 7.82292L8.72999 6.38955C8.21194 5.79052 7.75634 5.14699 7.39343 4.49715H9.47971L9.93725 3.34224Z" fill="white"/>
</svg>
